<?xml version="1.0" encoding="UTF-8"?>
<!DOCTYPE svg  PUBLIC '-//W3C//DTD SVG 1.1//EN'  'http://www.w3.org/Graphics/SVG/1.1/DTD/svg11.dtd'>
<svg version="1.1" xmlns="http://www.w3.org/2000/svg">
<defs>
<font id="ArodoraPro-Light" horiz-adv-x="609">
<font-face font-family="Arodora Pro Light" font-weight="300" ascent="800" bbox="-54 -237.021 1017 887" cap-height="670" descent="-200" panose-1="0 0 0 0 0 0 0 0 0 0" underline-position="-100" underline-thickness="50" unicode-range="U+0020-00FE" units-per-em="1000" x-height="500"/>
<missing-glyph/>
<glyph glyph-name="space" horiz-adv-x="250" unicode=" "/>
<glyph d="M125 187h-48v483h48v-483zM72 22q0 25 22 29q4 1 7 1q24 0 28 -23q1 -4 1 -7q0 -22 -21 -28q-4 -1 -8 -1q-22 0 -28 21q-1 4 -1 8z" glyph-name="exclam" horiz-adv-x="204" unicode="!"/>
<glyph d="M49 473h-20l48 227h43v-21zM207 473h-21l48 227h43v-21z" glyph-name="quotedbl" horiz-adv-x="315" unicode='"'/>
<glyph d="M165 50h-42l25 149h-111l9 40h108l35 214h-104l10 40h101l25 157h42l-26 -157h230l26 157h41l-25 -157h110l-10 -40h-107l-35 -214h103l-9 -40h-100l-25 -149h-41l24 149h-230zM195 239h231l35 214h-231z" glyph-name="numbersign" horiz-adv-x="659" unicode="#"/>
<glyph d="M44 192l49 5q18 -72 87 -119q51 -35 106 -36q97 -1 149 56q29 33 29 71q0 75 -89 120q-16 8 -60 26q-2 1 -112 42q-101 42 -127 116q-8 23 -8 46q0 74 73 120q52 32 123 37v84h41v-83q116 -7 168 -92q25 -40 29 -90l-44 -6q0 71 -64 114q-47 31 -108 31q-97 0 -146 -57 q-23 -28 -23 -58q0 -75 118 -122q3 -1 13 -5q14 -5 101 -40q139 -47 161 -140q4 -19 4 -40q0 -83 -74 -135q-56 -38 -134 -43v-83h-40v83q-99 10 -167 90q-41 48 -55 108z" glyph-name="dollar" horiz-adv-x="549" unicode="$"/>
<glyph d="M216 348q-81 0 -131 63q-35 46 -35 103q0 88 68 134q43 29 98 29q89 0 136 -66q30 -43 30 -97q0 -81 -63 -131q-46 -35 -103 -35zM216 640q-69 0 -105 -54q-21 -32 -21 -72q0 -63 52 -102q35 -25 74 -25q62 0 101 52q25 34 25 75q0 69 -56 106q-32 20 -70 20zM146 51 l-24 22l461 505l26 -21zM553 -11q-81 0 -131 63q-35 46 -35 103q0 88 68 134q43 29 98 29q89 0 136 -66q30 -43 30 -97q0 -81 -63 -131q-46 -35 -103 -35zM553 280q-70 0 -106 -55q-20 -31 -20 -70q0 -64 54 -103q33 -24 72 -24q62 0 101 51q25 35 25 76q0 69 -56 105 q-32 20 -70 20z" glyph-name="percent" horiz-adv-x="765" unicode="%"/>
<glyph d="M664 40l-24 -42l-136 116q-96 -113 -212 -122q-10 -1 -18 -1q-109 0 -177 76q-39 44 -46 95q-12 94 67 163q36 31 85 50q-84 85 -85 151q0 85 84 127q48 24 107 24q125 0 180 -88q26 -42 30 -94l-45 -5q0 69 -59 112q-45 32 -106 32q-80 0 -120 -48q-22 -27 -22 -63 q0 -60 127 -170q5 -4 9 -7l194 -165q48 71 68 152l41 -23q-22 -84 -73 -159zM469 145l-192 164q-25 20 -49 43q-117 -57 -129 -147q-2 -16 -1 -32q6 -63 69 -103q47 -31 104 -31q106 1 198 106z" glyph-name="ampersand" horiz-adv-x="701" unicode="&amp;"/>
<glyph d="M75 423h-20v227h43v-21z" glyph-name="quotesingle" horiz-adv-x="139" unicode="'"/>
<glyph d="M297 -122q-233 169 -234 448q1 280 234 448l23 -35q-178 -139 -204 -334q-5 -39 -5 -79q0 -219 158 -369q24 -23 51 -44z" glyph-name="parenleft" horiz-adv-x="365" unicode="("/>
<glyph d="M76 774q233 -169 234 -448q-1 -280 -234 -448l-23 35q217 170 209 413q-6 198 -115 324q-37 42 -94 89z" glyph-name="parenright" horiz-adv-x="367" unicode=")"/>
<glyph d="M185 499l-127 -9v36l126 -8l-79 96l30 21l68 -111l70 113l30 -21l-81 -98l129 8v-36l-130 9l81 -104l-29 -21l-70 118l-68 -116l-29 21z" glyph-name="asterisk" horiz-adv-x="407" unicode="*"/>
<glyph d="M300 270v-185h-45v185h-185v45h185v185h45v-185h185v-45h-185z" glyph-name="plus" horiz-adv-x="555" unicode="+"/>
<glyph d="M13 -128l83 255h47v-28l-96 -227h-34z" glyph-name="comma" horiz-adv-x="173" unicode=","/>
<glyph d="M440 278h-375v50h375v-50z" glyph-name="hyphen" horiz-adv-x="505" unicode="-"/>
<glyph d="M74 20q0 25 22 29q4 1 7 1q24 0 28 -23q1 -4 1 -7q0 -24 -22 -28q-4 -1 -7 -1q-24 0 -28 22q-1 4 -1 7z" glyph-name="period" horiz-adv-x="207" unicode="."/>
<glyph d="M304 800l-236 -900h-43l236 900h43z" glyph-name="slash" horiz-adv-x="330" unicode="/"/>
<glyph d="M35 331q0 168 98 264q80 77 195 77q138 0 220 -107q71 -94 71 -234q0 -169 -99 -263q-78 -75 -192 -75q-140 0 -222 107q-71 93 -71 231zM83 331q0 -158 94 -237q63 -53 151 -53q131 0 197 105q47 76 47 185q0 157 -91 238q-64 56 -153 56q-125 0 -193 -102 q-52 -78 -52 -192z" glyph-name="zero" horiz-adv-x="657" unicode="0"/>
<glyph d="M27 625l183 45h37v-670h-48v620l-166 -34z" glyph-name="one" horiz-adv-x="312" unicode="1"/>
<glyph d="M58 528l-7 50q54 65 143 88q28 7 52 7q169 0 205 -117q9 -28 9 -61q0 -78 -107 -196q-1 -1 -28 -30l-206 -221h345v-48h-420v41l225 232q94 97 122 151q22 42 22 79q0 76 -73 106q-37 15 -86 15q-103 -1 -196 -96z" glyph-name="two" horiz-adv-x="534" unicode="2"/>
<glyph d="M41 88l7 52q53 -64 162 -90q38 -9 70 -9q121 0 157 75q11 24 11 52q0 77 -85 120q-73 36 -174 31v41q147 9 214 69q34 32 35 71q0 71 -71 105q-41 19 -96 19q-122 -1 -204 -52l-7 50q73 41 175 49q15 1 28 1q136 0 192 -78q28 -40 28 -90q0 -102 -124 -146 q-19 -7 -39 -12q145 -37 169 -145q5 -20 5 -41q0 -97 -90 -141q-55 -26 -132 -26q-83 0 -171 49q-39 22 -60 46z" glyph-name="three" horiz-adv-x="557" unicode="3"/>
<glyph d="M46 208l369 462h39v-462h108v-43h-108v-165h-47v165h-361v43zM407 590l-304 -382h304v382z" glyph-name="four" horiz-adv-x="602" unicode="4"/>
<glyph d="M41 88l7 56q59 -71 159 -95q32 -8 60 -8q104 0 148 76q22 39 22 88q0 80 -65 130q-58 45 -136 39q-64 -6 -126 -37l-30 28l18 305h353l-5 -43h-302l-15 -240q70 32 132 31q108 -1 173 -78q49 -59 49 -136q0 -124 -93 -179q-55 -32 -131 -32q-85 0 -168 53q-31 21 -50 42z " glyph-name="five" horiz-adv-x="521" unicode="5"/>
<glyph d="M258 -7q-160 0 -198 175q-13 61 -13 144q0 212 96 306q57 54 136 54q98 -1 188 -50l-7 -48q-96 47 -158 50h-16q-122 0 -169 -146q-18 -58 -22 -132q91 48 158 54q18 2 35 2q121 0 168 -94q22 -45 22 -104q0 -129 -96 -183q-52 -28 -124 -28zM279 359q-90 -4 -186 -59 q0 -196 92 -242q34 -17 81 -17q108 0 148 82q17 36 17 82q0 111 -82 143q-31 12 -70 11z" glyph-name="six" horiz-adv-x="525" unicode="6"/>
<glyph d="M390 627h-354l-5 43h417v-31l-289 -639h-54z" glyph-name="seven" horiz-adv-x="483" unicode="7"/>
<glyph d="M274 -7q-128 0 -193 78q-41 49 -41 113q0 87 83 139q23 14 49 23q-90 40 -98 135q-1 10 -1 18q0 74 63 126q58 47 138 47q104 0 164 -70q39 -46 39 -100q0 -104 -87 -149q-7 -4 -14 -7q93 -33 123 -105q10 -26 10 -53q0 -94 -79 -150q-65 -45 -156 -45zM274 631 q-84 0 -129 -63q-24 -35 -24 -75q0 -74 68 -110q38 -20 85 -20q90 0 132 59q23 33 23 75q0 62 -56 103q-43 31 -99 31zM274 327q-95 0 -150 -56q-36 -38 -36 -87q0 -77 69 -120q50 -30 117 -30q104 0 157 67q31 39 31 87q0 69 -73 110q-52 29 -115 29z" glyph-name="eight" horiz-adv-x="551" unicode="8"/>
<glyph d="M54 43l7 48q107 -49 179 -50q114 0 162 137q18 54 24 123q-94 -49 -164 -54q-12 -1 -24 -1q-127 0 -174 100q-21 46 -21 106q0 137 100 192q53 28 125 28q178 0 203 -234q4 -40 4 -85q0 -207 -93 -302q-56 -58 -135 -58q-103 1 -193 50zM260 624q-115 0 -154 -93 q-15 -37 -15 -85q0 -123 94 -150q28 -8 62 -7q79 4 177 56l4 2q0 154 -41 215q-42 61 -127 62z" glyph-name="nine" horiz-adv-x="518" unicode="9"/>
<glyph d="M36 482q5 26 29 29q29 -2 30 -29q-2 -28 -30 -29q-26 5 -29 29zM36 20q0 25 22 29q4 1 7 1q28 -4 30 -30q-4 -27 -30 -29q-24 0 -28 22q-1 4 -1 7z" glyph-name="colon" horiz-adv-x="132" unicode=":"/>
<glyph d="M83 482q5 26 29 29q28 -2 29 -29q-2 -28 -29 -29q-26 5 -29 29zM15 -128l77 255h47v-28l-91 -227h-33z" glyph-name="semicolon" horiz-adv-x="178" unicode=";"/>
<glyph d="M387 449v-43l-292 -156l292 -159v-43l-346 181v41z" glyph-name="less" horiz-adv-x="436" unicode="&lt;"/>
<glyph d="M480 406h-435v44h435v-44zM480 198h-435v45h435v-45z" glyph-name="equal" horiz-adv-x="525" unicode="="/>
<glyph d="M41 406v43l346 -179v-41l-346 -181v43l292 159z" glyph-name="greater" horiz-adv-x="434" unicode="&gt;"/>
<glyph d="M213 187h-43q0 116 82 189q14 13 44 35q53 39 67 64q11 20 11 43q0 72 -76 100q-38 14 -88 14q-79 0 -157 -38q-7 -4 -13 -7l-9 44q94 47 197 46q124 -2 172 -80q22 -35 22 -79q0 -68 -57 -112q-11 -9 -36 -26q-62 -41 -84 -74q-32 -48 -32 -119zM164 22q0 25 22 29 q4 1 7 1q27 -4 29 -30q-5 -26 -29 -29q-24 0 -28 22q-1 4 -1 7z" glyph-name="question" horiz-adv-x="483" unicode="?"/>
<glyph d="M70 317q0 -134 94 -228q95 -95 229 -95q64 0 144 33l13 -27q-87 -36 -157 -36q-144 0 -246 99t-107 241v13q0 144 99 246t241 107h13q144 0 246 -99t107 -241v-13q0 -137 -71 -198q-38 -31 -87 -31q-82 0 -100 96q-4 24 -4 52q-4 -30 -40 -54q-34 -21 -80 -22 q-69 -1 -116 56q-37 45 -37 101q0 72 57 122q41 35 88 36q91 3 126 -72q1 -2 2 -3v72h41v-236q1 -114 74 -115q59 0 93 73q24 53 24 123q0 143 -104 238q-94 85 -219 85q-134 0 -228 -93q-95 -95 -95 -230zM254 317q0 -65 55 -99q32 -20 71 -19q58 1 89 46q15 22 15 44v61 q0 29 -38 59q-36 27 -74 27q-67 0 -100 -56q-18 -29 -18 -63z" glyph-name="at" horiz-adv-x="779" unicode="@"/>
<glyph d="M72 0h-49l242 670h189l242 -670h-49l-73 202q-27 2 -109 25q-61 17 -106 17t-128 -24q-52 -16 -86 -18zM297 623l-136 -376q21 3 102 26q54 15 96 15q47 0 135 -26q39 -11 63 -15l-135 376h-125z" glyph-name="A" horiz-adv-x="718" unicode="A"/>
<glyph d="M65 0v670h278q108 0 164 -73q34 -46 34 -107q0 -83 -70 -133q-19 -13 -39 -21q89 -23 115 -97q9 -25 9 -53q0 -115 -90 -162q-47 -24 -108 -24h-293zM343 626h-230v-274h230q73 0 120 55q31 38 31 83q0 78 -66 115q-38 21 -85 21zM358 310h-245v-266h245q110 0 141 83 q10 27 10 59q0 70 -67 105q-38 19 -84 19z" glyph-name="B" horiz-adv-x="594" unicode="B"/>
<glyph d="M381 -7q-132 0 -231 97q-95 95 -104 226q-1 12 -1 23q0 135 95 234q94 98 227 104h14q119 0 215 -80q14 -12 26 -24l-34 -34q-76 83 -189 90q-9 1 -18 1q-120 0 -206 -88q-83 -86 -83 -203q0 -122 86 -210q85 -88 203 -88q94 0 175 63q18 15 33 31l34 -34 q-85 -87 -199 -105q-22 -3 -43 -3z" glyph-name="C" horiz-adv-x="662" unicode="C"/>
<glyph d="M70 0v670h252q182 0 267 -126q58 -86 58 -212q0 -178 -116 -268q-84 -64 -209 -64h-252zM322 626h-204v-582h204q150 0 225 106q53 74 53 183q0 168 -110 245q-69 48 -168 48z" glyph-name="D" horiz-adv-x="696" unicode="D"/>
<glyph d="M67 0v670h439v-47h-392v-254h379v-47h-379v-274h392v-48h-439z" glyph-name="E" horiz-adv-x="556" unicode="E"/>
<glyph d="M62 0v670h439v-47h-392v-269h379v-47h-379v-307h-47z" glyph-name="F" horiz-adv-x="552" unicode="F"/>
<glyph d="M394 -7q-155 0 -253 103q-90 96 -90 237q0 155 102 253q96 91 238 91q119 0 213 -64q27 -19 46 -40l-34 -33q-70 76 -189 88q-19 2 -36 2q-142 0 -224 -99q-68 -81 -68 -198q0 -143 98 -225q81 -67 197 -67q79 0 162 44q31 16 51 34v179h-259v48h306v-245 q-68 -70 -179 -97q-43 -11 -81 -11z" glyph-name="G" horiz-adv-x="703" unicode="G"/>
<glyph d="M54 0v670h48v-301h408v301h47v-670h-47v322h-408v-322h-48z" glyph-name="H" horiz-adv-x="611" unicode="H"/>
<glyph d="M132 0h-47v670h47v-670z" glyph-name="I" horiz-adv-x="211" unicode="I"/>
<glyph d="M206 -7q-85 0 -157 33l11 46q62 -31 146 -31q109 0 170 74q42 51 42 120v435h48v-435q0 -114 -86 -184q-73 -58 -174 -58z" glyph-name="J" horiz-adv-x="526" unicode="J"/>
<glyph d="M119 335v-335h-47v670h47v-317l320 317h62l-329 -326l361 -344h-62z" glyph-name="K" horiz-adv-x="552" unicode="K"/>
<glyph d="M73 0v670h47v-622h392v-48h-439z" glyph-name="L" horiz-adv-x="543" unicode="L"/>
<glyph d="M125 605v-605h-48v670h59l262 -367l259 367h57v-670h-47v603l-261 -374h-16z" glyph-name="M" horiz-adv-x="791" unicode="M"/>
<glyph d="M76 0v670h47l484 -595v595h48v-670h-48l-484 595v-595h-47z" glyph-name="N" horiz-adv-x="728" unicode="N"/>
<glyph d="M58 333q0 138 95 238q93 99 225 106h16q133 0 231 -95.5t105 -232.5v-16q0 -138 -96 -237q-94 -98 -227 -103h-13q-134 0 -232 95q-99 96 -104 232v13zM105 333q0 -121 87 -208q86 -86 202 -86q117 0 202 87q86 88 86 207q0 122 -86 211q-86 87 -202 87q-118 0 -203 -88 q-86 -89 -86 -210z" glyph-name="O" horiz-adv-x="778" unicode="O"/>
<glyph d="M69 0v670h228q170 0 224 -115q20 -45 20 -102q0 -168 -147 -208q-44 -12 -97 -12h-180v-233h-48zM297 625h-180v-347h180q181 0 196 149q1 14 1 27q0 121 -107 158q-40 13 -90 13z" glyph-name="P" horiz-adv-x="588" unicode="P"/>
<glyph d="M52 330q0 137 95 237q93 98 225 105h16q134 0 233 -97q97 -95 103 -231v-14q0 -136 -97 -236q-25 -25 -54 -45h1q-70 -49 -54 -119q3 -13 9 -25q25 -49 89 -56q9 -1 16 -1q30 0 60 12l17 -37q-36 -24 -83 -24q-76 0 -123 56q-9 11 -16 23q-34 63 -8 128q-48 -13 -93 -13 q-135 0 -233 95t-103 229v13zM100 330q0 -121 87 -207q85 -84 201 -84q119 0 204 87q85 86 85 204q0 122 -87 209q-86 87 -202 87q-118 0 -203 -88t-85 -208z" glyph-name="Q" horiz-adv-x="780" unicode="Q"/>
<glyph d="M70 0v670h226q240 -7 244 -202q-2 -160 -148 -194l173 -274h-57l-168 266q-15 -1 -44 -1h-178v-265h-48zM296 626h-178v-318h178q160 0 190 102q7 27 7 59q-2 156 -197 157z" glyph-name="R" horiz-adv-x="586" unicode="R"/>
<glyph d="M47 192l49 5q18 -72 87 -119q51 -35 106 -36q97 -1 149 56q29 33 29 71q0 75 -89 120q-16 8 -60 26q-6 2 -30 11q-65 25 -82 32q-96 39 -125 111q-10 25 -10 51q0 73 73 119q59 36 142 38q123 2 183 -80q31 -44 36 -102l-44 -5q0 70 -63 112q-47 32 -109 32 q-97 0 -146 -56q-23 -28 -23 -58q0 -79 131 -127q71 -30 101 -40q138 -48 160 -138q5 -21 5 -43q0 -82 -74 -135q-64 -44 -154 -44q-98 0 -173 75q-53 54 -69 124z" glyph-name="S" horiz-adv-x="553" unicode="S"/>
<glyph d="M274 623h-244v47h536v-47h-245v-623h-47v623z" glyph-name="T" horiz-adv-x="595" unicode="T"/>
<glyph d="M567 670h45l-1 -411q1 -131 -87 -205q-72 -59 -181 -59q-159 0 -231 110q-42 65 -42 154l-1 411h45v-410q0 -122 91 -180q58 -37 140 -37q123 0 184 88q38 55 39 128z" glyph-name="U" horiz-adv-x="679" unicode="U"/>
<glyph d="M308 0l-284 670h51l259 -610l260 610h51l-286 -670h-51z" glyph-name="V" horiz-adv-x="666" unicode="V"/>
<glyph d="M827 670h51l-212 -670h-51l-160 579l-159 -579h-51l-213 670h50l187 -585l161 585h50l162 -585z" glyph-name="W" horiz-adv-x="910" unicode="W"/>
<glyph d="M278 334l-252 336h59l223 -297l224 297h58l-253 -336l250 -334h-58l-222 295l-222 -295h-58z" glyph-name="X" horiz-adv-x="611" unicode="X"/>
<glyph d="M264 268l-246 402h55l214 -358l218 358h54l-248 -402v-268h-47v268z" glyph-name="Y" horiz-adv-x="577" unicode="Y"/>
<glyph d="M45 0v37l444 586h-431v47h498v-36l-441 -586h450v-48h-520z" glyph-name="Z" horiz-adv-x="603" unicode="Z"/>
<glyph d="M303 -122h-239v894h239v-45h-193v-804h193v-45z" glyph-name="bracketleft" horiz-adv-x="336" unicode="["/>
<glyph d="M259 -100l-236 900h47l236 -900h-47z" glyph-name="backslash" horiz-adv-x="329" unicode="\"/>
<glyph d="M271 772v-894h-239v45h193v804h-193v45h239z" glyph-name="bracketright" horiz-adv-x="326" unicode="]"/>
<glyph d="M71 560l132 142h37l131 -142h-37l-113 108l-113 -108h-37z" glyph-name="asciicircum" horiz-adv-x="446" unicode="^"/>
<glyph d="M488 -132h-455v45h455v-45z" glyph-name="underscore" horiz-adv-x="520" unicode="_"/>
<glyph d="M207 559h-21l-95 121v21h43z" glyph-name="grave" horiz-adv-x="275" unicode="`"/>
<glyph d="M43 248q0 118 80 193q69 64 163 64q152 -1 217 -120v115h47v-500h-47v123q-29 -72 -114 -108q-50 -22 -104 -22q-112 0 -182 85q-60 72 -60 170zM300 38q82 0 148 59q54 50 55 107v87q0 67 -63 119q-60 50 -139 50q-118 0 -177 -93q-33 -54 -33 -119q0 -106 76 -166 q57 -44 133 -44z" glyph-name="a" unicode="a"/>
<glyph d="M575 248q0 -117 -80 -192q-68 -63 -162 -63q-99 0 -170 63q-33 30 -48 67v-123h-47v670h47v-285q66 119 218 120q113 0 183 -86q59 -73 59 -171zM115 204q0 -65 68 -117q63 -49 135 -49q108 0 167 79q42 56 42 131q0 96 -64 157q-58 55 -145 55q-94 0 -157 -66 q-45 -49 -46 -103v-87z" glyph-name="b" horiz-adv-x="622" unicode="b"/>
<glyph d="M313 -7q-111 0 -188 81q-69 74 -69 174q0 111 82 187q75 70 175 70q110 0 186 -80l2 -2l-33 -33q-53 60 -136 68q-10 1 -19 1q-95 0 -158 -73q-51 -60 -51 -138q0 -95 72 -158q59 -51 137 -51q90 1 156 69l33 -33q-72 -77 -178 -82h-11z" glyph-name="c" horiz-adv-x="542" unicode="c"/>
<glyph d="M48 248q0 119 81 194q68 63 161 63q153 -1 218 -120v285h47v-670h-47v123q-30 -73 -114 -109q-50 -21 -104 -21q-112 0 -182 85q-60 72 -60 170zM305 38q84 0 149 60q53 50 54 106v87q0 66 -63 119q-61 50 -140 50q-118 0 -176 -93q-33 -54 -33 -119q0 -105 76 -165 q56 -45 133 -45z" glyph-name="d" horiz-adv-x="615" unicode="d"/>
<glyph d="M305 -7q-111 0 -185 83q-64 73 -64 172q0 115 81 191q71 66 168 66q111 0 184 -82q65 -73 65 -173q0 -5 -1 -11v-8h-449q7 -100 83 -155q52 -38 118 -38q111 1 171 94l45 -12q-53 -94 -156 -120q-30 -7 -60 -7zM104 268h401q-7 102 -84 157q-52 37 -116 37 q-96 0 -156 -75q-40 -51 -45 -119z" glyph-name="e" horiz-adv-x="601" unicode="e"/>
<glyph d="M137 443v-443h-47v443h-75l9 45h66v19q0 112 41 148q34 29 97 29q51 0 103 -17l-7 -42q-38 13 -77 16q-76 3 -97 -44q-13 -31 -13 -94v-15h173v-45h-173z" glyph-name="f" horiz-adv-x="338" unicode="f"/>
<glyph d="M512 375v125h48v-500q0 -146 -109 -205q-68 -37 -167 -31q-121 8 -202 61l7 48q86 -56 195 -63q153 -10 206 90q22 43 22 100v131q-25 -79 -113 -116q-51 -22 -110 -22q-113 0 -181 87q-55 71 -55 168q0 125 81 199q65 58 155 58q158 0 218 -119q3 -6 5 -11zM512 210v92 q-44 146 -189 157q-5 1 -9 1q-107 6 -169 -71q-45 -59 -45 -141q0 -110 77 -169q58 -44 135 -41q94 4 155 69q45 47 45 103z" glyph-name="g" horiz-adv-x="628" unicode="g"/>
<glyph d="M112 0h-47v670h47v-269q24 61 101 89q41 15 85 15q103 0 160 -90q43 -69 43 -167v-248h-47v248q0 129 -77 184q-44 30 -103 27q-89 -6 -137 -68q-25 -34 -25 -68v-323z" glyph-name="h" horiz-adv-x="561" unicode="h"/>
<glyph d="M61 650q5 26 29 29q28 -2 29 -29q-2 -28 -29 -29q-26 5 -29 29zM113 0h-48v500h48v-500z" glyph-name="i" horiz-adv-x="182" unicode="i"/>
<glyph d="M75 650q0 24 23 28q3 1 6 1q26 -5 30 -29q0 -23 -22 -28q-4 -1 -8 -1q-24 0 -28 22q-1 4 -1 7zM80 500h48v-561q0 -91 -58 -142q-27 -23 -58 -29q-28 -4 -63 0l8 47q14 -3 30 -1q51 6 78 63q15 33 15 70v553z" glyph-name="j" horiz-adv-x="194" unicode="j"/>
<glyph d="M115 244v-244h-48v670h48v-409l261 239h60l-268 -248l295 -252h-63z" glyph-name="k" horiz-adv-x="484" unicode="k"/>
<glyph d="M115 0h-48v670h48v-670z" glyph-name="l" horiz-adv-x="183" unicode="l"/>
<glyph d="M112 0h-47v500h47v-93q60 97 184 98q108 0 158 -106q4 -8 7 -16q31 73 107 106q38 16 77 16q106 0 160 -96q37 -66 37 -161v-248h-48v248q0 134 -77 187q-41 28 -96 25q-60 -4 -111 -62q-25 -29 -36 -59q10 -41 10 -91v-248h-48v248q0 146 -82 194q-33 20 -75 19 q-81 -2 -134 -59q-32 -35 -33 -70v-332z" glyph-name="m" horiz-adv-x="899" unicode="m"/>
<glyph d="M131 323v-323h-47v500h47v-97q66 101 186 102q97 0 156 -85q49 -71 49 -172v-248h-48v248q0 124 -75 181q-46 34 -106 31q-81 -5 -131 -64q-31 -36 -31 -73z" glyph-name="n" horiz-adv-x="578" unicode="n"/>
<glyph d="M308 -7q-111 0 -187 81q-70 74 -70 174q0 111 82 187q75 70 175 70q111 0 187 -82q70 -75 70 -175q0 -110 -82 -186q-75 -69 -175 -69zM308 462q-93 0 -156 -72q-53 -61 -53 -142q0 -96 72 -159q60 -52 137 -52q93 0 156 70q54 61 54 141q0 96 -71 160q-61 54 -139 54z " glyph-name="o" horiz-adv-x="613" unicode="o"/>
<glyph d="M574 252q0 -119 -80 -194q-67 -63 -160 -63q-119 0 -190 80q-17 21 -29 43v-268h-48v650h48v-120q53 105 173 124q23 3 46 3q107 0 178 -83q62 -74 62 -172zM115 280v-69q0 -66 67 -120q63 -50 137 -50q108 -1 167 78q41 57 41 133q0 103 -75 164q-57 46 -133 46 q-95 0 -156 -66q-48 -52 -48 -116z" glyph-name="p" horiz-adv-x="624" unicode="p"/>
<glyph d="M51 252q0 113 78 189q69 66 162 66q131 0 200 -96q11 -15 19 -31v120h48v-650h-48v268q-48 -91 -155 -116q-31 -7 -64 -7q-112 0 -182 86q-58 72 -58 171zM306 462q-102 0 -163 -76q-45 -57 -45 -134q0 -110 78 -170q55 -41 130 -41q84 0 149 60q54 52 55 110v69 q0 82 -70 137q-59 45 -134 45z" glyph-name="q" horiz-adv-x="623" unicode="q"/>
<glyph d="M63 0v500h48v-98q39 93 158 103q49 4 107 -11l-8 -50q-56 20 -110 16q-76 -5 -122 -64q-25 -33 -25 -65v-331h-48z" glyph-name="r" horiz-adv-x="393" unicode="r"/>
<glyph d="M55 146l47 5q17 -71 79 -101q29 -14 61 -14q75 0 111 43q16 20 16 41q0 42 -46 73q-20 14 -53 30q-47 22 -80 35q-87 38 -106 85q-7 20 -7 43q0 65 67 99q42 20 96 21q98 2 144 -66q22 -33 25 -75l-43 -6q-9 84 -89 101q-16 3 -33 4q-73 2 -105 -40q-14 -19 -14 -40 q0 -36 32 -59q22 -16 71 -38q53 -23 71 -32q93 -47 112 -94q8 -19 8 -41q0 -63 -66 -100q-48 -27 -111 -27q-103 0 -157 81q-21 33 -30 72z" glyph-name="s" horiz-adv-x="463" unicode="s"/>
<glyph d="M154 603h47v-115h168v-45h-168v-281q0 -90 40 -110q22 -10 62 -8q48 3 77 16l7 -47q-51 -18 -103 -18q-104 0 -124 85q-6 25 -6 57v306h-114l9 45h105v115z" glyph-name="t" horiz-adv-x="431" unicode="t"/>
<glyph d="M443 178v322h48v-500h-48v97q-65 -101 -184 -102q-97 0 -156 85q-49 71 -49 172v248h48v-248q0 -124 75 -181q46 -34 106 -30q82 5 131 64q29 36 29 73z" glyph-name="u" horiz-adv-x="555" unicode="u"/>
<glyph d="M458 500h51l-213 -500h-51l-221 500h51l195 -441z" glyph-name="v" horiz-adv-x="531" unicode="v"/>
<glyph d="M222 0l-194 500h51l167 -430l146 430h51l145 -430l167 430h51l-195 -500h-51l-143 425l-144 -425h-51z" glyph-name="w" horiz-adv-x="832" unicode="w"/>
<glyph d="M225 250l-200 250h58l171 -214l171 214h58l-200 -250l200 -250h-58l-171 214l-171 -214h-58z" glyph-name="x" horiz-adv-x="509" unicode="x"/>
<glyph d="M456 500h51l-212 -500q-3 -6 -9 -22q-44 -119 -97 -168q-41 -37 -90 -46l-7 44q83 17 145 168q2 5 5.5 13t4.5 11l-224 500h52l195 -444z" glyph-name="y" horiz-adv-x="526" unicode="y"/>
<glyph d="M54 0v36l337 417h-324v47h392v-36l-335 -416h345v-48h-415z" glyph-name="z" horiz-adv-x="523" unicode="z"/>
<glyph d="M87 326q92 -11 92 -204q0 -126 107 -185q28 -15 61 -24l-23 -35q-117 35 -165 126q-23 45 -23 95q0 144 -38 182q-20 19 -50 19v52q68 -1 83 101q5 38 5 100q0 104 90 172q43 33 98 49l23 -35q-127 -35 -159 -142q-9 -32 -9 -67q-1 -193 -92 -204z" glyph-name="braceleft" horiz-adv-x="412" unicode="{"/>
<glyph d="M105 -200h-47v923h47v-923z" glyph-name="bar" horiz-adv-x="165" unicode="|"/>
<glyph d="M323 326q-92 11 -92 204q0 132 -116 189q-24 12 -52 20l23 35q117 -35 165 -126q23 -45 23 -95q0 -149 42 -185q19 -16 46 -16v-52q-68 1 -83 -104q-5 -38 -5 -97q0 -104 -90 -172q-43 -33 -98 -49l-23 35q126 34 159 142q9 32 9 67q1 193 92 204z" glyph-name="braceright" horiz-adv-x="412" unicode="}"/>
<glyph d="M383 413l38 -6q-18 -112 -82 -117q-36 1 -83 31q-72 49 -107 49q-6 0 -11 -1q-32 -6 -45 -46q-4 -14 -8 -33l-38 11q14 80 52 100q18 9 41 9q36 0 98 -37q11 -7 15 -9q50 -31 76 -31q44 1 54 80z" glyph-name="asciitilde" horiz-adv-x="503" unicode="~"/>
<glyph glyph-name="uni00A0" horiz-adv-x="260" unicode=" "/>
<glyph d="M79 477q0 23 22 28q4 1 8 1q24 0 28 -22q1 -4 1 -7q0 -22 -21 -28q-4 -1 -8 -1q-23 0 -29 21q-1 5 -1 8zM131 -200h-48v463h48v-463z" glyph-name="exclamdown" horiz-adv-x="210" unicode="¡"/>
<glyph d="M307 700l-1 -93q110 -1 187 -82l-33 -33q-53 60 -136 68q-10 1 -19 1q-95 0 -158 -73q-51 -60 -51 -138q0 -95 72 -158q59 -51 137 -51q90 1 156 69l33 -33q-82 -78 -187 -82l-1 -95h-41l1 98q-105 16 -168 102q-50 68 -50 150q0 111 81 187q59 55 136 67l1 96h41z" glyph-name="cent" horiz-adv-x="543" unicode="¢"/>
<glyph d="M171 459v-131h347v-44h-347v-236h410v-48h-537v37q62 0 74 18q5 9 5 21v208h-79v44h79v131q0 125 108 173q50 22 117 23q119 2 185 -72q41 -47 46 -109l-45 -5q-6 80 -82 119q-46 23 -101 23q-124 0 -165 -83q-15 -31 -15 -69z" glyph-name="sterling" horiz-adv-x="613" unicode="£"/>
<glyph d="M272 113q-79 1 -136 48l-41 -41l-30 29l41 41q-46 59 -46 134q1 76 51 135l-46 47l29 29l48 -47q57 45 130 45q75 -1 132 -46l48 49l30 -29l-48 -49q50 -60 50 -134q-1 -76 -46 -133l43 -43l-29 -29l-43 43q-58 -49 -137 -49zM272 487q-74 0 -125 -58q-40 -46 -40 -105 q0 -84 66 -133q44 -33 99 -33q80 0 129 61q36 46 36 105q0 79 -65 128q-46 35 -100 35z" glyph-name="currency" horiz-adv-x="543" unicode="¤"/>
<glyph d="M482 240h-166v-96h166v-38h-166v-106h-47v106h-162v38h162v96h-162v38h155l-239 372h55l214 -340l218 340h54l-242 -372h160v-38z" glyph-name="yen" horiz-adv-x="580" unicode="¥"/>
<glyph d="M151 350h-48v300h48v-300zM151 -130h-48v300h48v-300z" glyph-name="brokenbar" horiz-adv-x="259" unicode="¦"/>
<glyph d="M92 87q34 -117 134 -147q26 -8 54 -9q100 -3 150 48q26 28 26 63q0 57 -51 92q-33 23 -97 47q-7 3 -39 14q-59 20 -73 26q-107 44 -127 105q-6 17 -6 36q2 100 130 127q-67 35 -75 94q-2 11 -2 22q0 68 76 98q38 14 88 15q103 1 147 -72q18 -31 21 -70l-45 -6 q-8 84 -88 101q-15 2 -31 3q-89 2 -114 -46q-7 -14 -7 -29q0 -53 94 -93l6 -3q7 -3 10 -4q14 -6 70 -31q80 -38 103 -81q13 -26 13 -57q-2 -92 -107 -117q126 -45 147 -126q6 -22 6 -45q0 -90 -90 -133q-57 -27 -135 -27q-110 0 -181 85q-41 50 -56 114zM251 250 q158 -8 159 80q0 57 -75 95q-13 6 -29 13l-40 18q-148 -10 -154 -94q0 -48 67 -82q25 -12 63 -26l6 -3z" glyph-name="section" horiz-adv-x="545" unicode="§"/>
<glyph d="M248 650q0 24 22 28q4 1 7 1q28 -2 29 -29q-2 -29 -29 -30q-24 0 -28 23q-1 4 -1 7zM58 650q0 23 22 28q4 1 8 1q26 -5 29 -29q-4 -28 -29 -30q-25 0 -29 23q-1 4 -1 7z" glyph-name="dieresis" horiz-adv-x="365" unicode="¨"/>
<glyph d="M60 324q0 144 98 242q98 96 240 96q143 0 241 -98q96 -98 96 -240q0 -143 -98 -240t-239 -97q-144 0 -242 98q-96 98 -96 239zM93 324q0 -127 91 -217q89 -87 214 -87q127 0 216 90q88 90 88 214q0 128 -91 217q-89 88 -213 88q-128 0 -217 -91q-88 -89 -88 -214z M403 139q-102 0 -155 74q-34 47 -34 111q0 92 72 144q51 35 117 35q76 -1 127 -56l-24 -28q-44 44 -103 46q-80 0 -123 -60q-26 -36 -26 -81q0 -79 63 -121q38 -25 86 -25q50 0 90 32q9 8 15 15l23 -31q-62 -55 -128 -55z" glyph-name="copyright" horiz-adv-x="789" unicode="©"/>
<glyph d="M31 583q0 76 57 117q34 24 76 24q84 -1 119 -66v63h26v-275h-26v68q-20 -49 -80 -65q-20 -6 -40 -6q-71 0 -109 59q-23 36 -23 81zM172 467q53 0 89 41q22 25 22 51v48q0 43 -44 73q-31 20 -67 20q-72 0 -102 -62q-13 -26 -13 -55q0 -67 53 -100q28 -16 62 -16z" glyph-name="ordfeminine" horiz-adv-x="355" unicode="ª"/>
<glyph d="M255 476l-146 -178l146 -178l-29 -27l-163 205l163 205zM458 476l-146 -178l146 -178l-29 -27l-163 205l163 205z" glyph-name="guillemotleft" horiz-adv-x="506" unicode="«"/>
<glyph d="M56 364v47h438v-240h-47v193h-391z" glyph-name="logicalnot" horiz-adv-x="550" unicode="¬"/>
<glyph d="M60 324q0 144 98 242q98 96 240 96q143 0 241 -98q96 -98 96 -240q0 -143 -98 -240t-239 -97q-144 0 -242 98q-96 98 -96 239zM93 324q0 -127 91 -217q89 -87 214 -87q127 0 216 90q88 90 88 214q0 128 -91 217q-89 88 -213 88q-128 0 -217 -91q-88 -89 -88 -214z M260 162v330h146q129 0 130 -99q0 -78 -71 -95q-3 0 -6 -1l88 -135h-43l-85 130h-123v-130h-36zM406 461h-110v-138h110q74 1 88 40q5 13 5 31q-2 66 -93 67z" glyph-name="registered" horiz-adv-x="789" unicode="®"/>
<glyph d="M24 618v38h386v-38h-386z" glyph-name="macron" horiz-adv-x="436" unicode="¯"/>
<glyph d="M200 441q-90 0 -138 68q-30 43 -30 99q0 80 63 130q46 35 105 35q84 0 134 -64q34 -45 34 -101q0 -90 -68 -137q-44 -30 -100 -30zM200 734q-67 0 -105 -53q-23 -33 -23 -73q0 -73 57 -109q32 -20 71 -20q72 0 108 57q20 32 20 72q0 69 -57 105q-32 21 -71 21z" glyph-name="degree" horiz-adv-x="401" unicode="°"/>
<glyph d="M302 420v-185h-46v185h-186v45h186v185h46v-185h183v-45h-183zM467 92h-375v45h375v-45z" glyph-name="plusminus" horiz-adv-x="555" unicode="±"/>
<glyph d="M51 775l-4 36q40 52 107 62q11 1 20 1q140 -2 141 -128q-1 -59 -59 -119l-155 -152h218v-35h-279v27l168 161q69 74 73 125q-10 82 -101 86q-66 0 -123 -58q-4 -3 -6 -6z" glyph-name="twosuperior" horiz-adv-x="365" unicode="²"/>
<glyph d="M23 497l6 40q43 -50 118 -64q17 -3 31 -3q81 0 105 56q7 17 7 35q0 59 -78 79q-39 9 -90 7v32q81 3 114 17q45 22 46 65q0 47 -50 67q-24 10 -54 10q-70 -1 -130 -36l-5 38q58 34 131 34q91 0 128 -58q15 -25 15 -54q-2 -74 -88 -96q96 -30 97 -112q0 -63 -59 -97 q-40 -23 -93 -23q-64 0 -122 39q-18 12 -29 24z" glyph-name="threesuperior" horiz-adv-x="365" unicode="³"/>
<glyph d="M59 558l80 142h43v-21l-102 -121h-21z" glyph-name="acute" horiz-adv-x="275" unicode="´"/>
<glyph d="M497 252v248h48v-335q0 -110 58 -117q5 -1 10 -1v-47q-84 2 -106 102q-53 -89 -158 -104q-18 -3 -36 -3q-115 0 -182 85l-6 8v-288h-47v700h47v-248q0 -123 81 -181q47 -33 108 -33q91 0 143 74q40 57 40 140z" glyph-name="uni00B5" horiz-adv-x="654" unicode="µ"/>
<glyph d="M39 443q0 136 116 185q55 22 128 22h332v-850h-42v805h-247v-805h-43v433q-198 0 -236 143q-8 31 -8 67z" glyph-name="paragraph" horiz-adv-x="689" unicode="¶"/>
<glyph d="M34 261q5 26 29 29q28 -2 29 -29q-2 -28 -29 -29q-26 5 -29 29z" glyph-name="periodcentered" horiz-adv-x="129" unicode="·"/>
<glyph d="M130 92q71 -25 98 -96q19 -56 1 -113q-24 -64 -90 -91q-31 -12 -62 -12q-32 0 -58 11l8 37q22 -7 45 -7q65 0 101 47q11 14 16 30q22 66 -22 120q-23 28 -55 41z" glyph-name="cedilla" horiz-adv-x="260" unicode="¸"/>
<glyph d="M20 844l147 30h24v-432h-35v393l-132 -21z" glyph-name="onesuperior" horiz-adv-x="259" unicode="¹"/>
<glyph d="M259 120l146 178l-146 178l29 27l163 -205l-163 -205zM56 120l146 178l-146 178l29 27l163 -205l-163 -205z" glyph-name="guillemotright" horiz-adv-x="506" unicode="»"/>
<glyph d="M3 684l147 30h24v-432h-34v393l-132 -21zM535 700l-316 -700h-39l316 700h39zM414 135l237 299h29v-299h64v-33h-64v-102h-35v102h-231v33zM645 374l-188 -239h188v239z" glyph-name="onequarter" horiz-adv-x="760" unicode="¼"/>
<glyph d="M3 684l147 30h24v-432h-34v393l-132 -21zM488 700l-316 -700h-38l316 700h38zM444 335l-4 36q40 52 107 62q11 1 20 1q141 -2 142 -128q-1 -59 -60 -119l-155 -152h219v-35h-280v27l169 161q68 73 72 125q-10 82 -101 86q-66 0 -123 -58q-4 -3 -6 -6z" glyph-name="onehalf" horiz-adv-x="740" unicode="½"/>
<glyph d="M11 337l6 40q43 -50 118 -64q17 -3 31 -3q81 0 105 56q7 17 7 35q0 59 -78 79q-39 9 -90 7v32q81 3 114 17q45 22 46 65q0 47 -50 67q-24 10 -54 10q-70 -1 -130 -36l-5 38q58 34 131 34q91 0 128 -58q15 -25 15 -54q-2 -74 -88 -96q96 -30 97 -112q0 -63 -59 -97 q-40 -23 -93 -23q-64 0 -122 39q-18 12 -29 24zM615 700l-316 -700h-39l316 700h39zM541 135l237 299h28v-299h65v-33h-65v-102h-34v102h-231v33zM772 374l-188 -239h188v239z" glyph-name="threequarters" horiz-adv-x="886" unicode="¾"/>
<glyph d="M251 476q0 24 23 28q4 1 7 1q28 -2 29 -29q-2 -28 -29 -29q-26 5 -30 29zM263 309h43q0 -110 -78 -196q-13 -14 -41 -41q-58 -56 -73 -89q-12 -26 -12 -55q0 -83 87 -110q34 -10 77 -10q77 0 153 37q9 4 16 8l10 -44q-94 -47 -198 -46q-127 2 -173 85q-20 35 -20 80 q0 82 63 145q12 12 38 34q60 54 81 91q27 49 27 111z" glyph-name="questiondown" horiz-adv-x="481" unicode="¿"/>
<glyph d="M378 709h-21l-95 121v21h43zM72 0h-49l242 670h189l242 -670h-49l-73 202q-27 2 -109 25q-61 17 -106 17t-128 -24q-52 -16 -86 -18zM297 623l-136 -376q21 3 102 26q54 15 96 15q47 0 135 -26q39 -11 63 -15l-135 376h-125z" glyph-name="Agrave" horiz-adv-x="718" unicode="À"/>
<glyph d="M350 708l80 142h43v-21l-102 -121h-21zM72 0h-49l242 670h189l242 -670h-49l-73 202q-27 2 -109 25q-61 17 -106 17t-128 -24q-52 -16 -86 -18zM297 623l-136 -376q21 3 102 26q54 15 96 15q47 0 135 -26q39 -11 63 -15l-135 376h-125z" glyph-name="Aacute" horiz-adv-x="718" unicode="Á"/>
<glyph d="M209 708l132 142h37l131 -142h-37l-113 108l-113 -108h-37zM72 0h-49l242 670h189l242 -670h-49l-73 202q-27 2 -109 25q-61 17 -106 17t-128 -24q-52 -16 -86 -18zM297 623l-136 -376q21 3 102 26q54 15 96 15q47 0 135 -26q39 -11 63 -15l-135 376h-125z" glyph-name="Acircumflex" horiz-adv-x="718" unicode="Â"/>
<glyph d="M507 845l39 -6q-16 -113 -83 -117q-35 1 -82 31q-72 49 -107 49q-6 0 -11 -1q-32 -6 -45 -46q-4 -14 -8 -33l-38 11q14 80 52 100q18 9 41 9q35 0 100 -38q9 -6 13 -8q50 -31 76 -31q45 1 53 80zM72 0h-49l242 670h189l242 -670h-49l-73 202q-27 2 -109 25 q-61 17 -106 17t-128 -24q-52 -16 -86 -18zM297 623l-136 -376q21 3 102 26q54 15 96 15q47 0 135 -26q39 -11 63 -15l-135 376h-125z" glyph-name="Atilde" horiz-adv-x="718" unicode="Ã"/>
<glyph d="M240 794q5 26 29 29q28 -2 29 -29q-2 -28 -29 -29q-26 5 -29 29zM420 794q5 26 29 29q28 -2 29 -29q-2 -28 -29 -29q-26 5 -29 29zM72 0h-49l242 670h189l242 -670h-49l-73 202q-27 2 -109 25q-61 17 -106 17t-128 -24q-52 -16 -86 -18zM297 623l-136 -376q21 3 102 26 q54 15 96 15q47 0 135 -26q39 -11 63 -15l-135 376h-125z" glyph-name="Adieresis" horiz-adv-x="718" unicode="Ä"/>
<glyph d="M53 0h-49l242 670h9q-40 37 -41 90q0 65 53 103q33 24 73 24q66 0 103 -54q23 -34 23 -73q-1 -55 -40 -90h9l242 -670h-49l-73 202q-27 2 -109 25q-61 17 -106 17t-128 -24q-52 -16 -86 -18zM248 760q0 -51 45 -77q22 -12 47 -12q53 0 79 43q13 22 13 46q0 54 -45 80 q-22 13 -47 13q-52 0 -79 -44q-13 -23 -13 -49zM278 623l-136 -376q21 3 102 26q54 15 96 15q48 0 136 -26q40 -11 63 -15l-136 376h-125z" glyph-name="Aring" horiz-adv-x="682" unicode="Å"/>
<glyph d="M412 0v239q-30 7 -55 7q-49 0 -129 -25q-51 -16 -84 -18l-74 -203h-49l242 670h588v-47h-391v-254h378v-47h-378v-274h391v-48h-439zM412 283v340h-117l-135 -375q20 3 98 25q54 16 99 16q30 0 55 -6z" glyph-name="AE" horiz-adv-x="901" unicode="Æ"/>
<glyph d="M381 -7q-132 0 -231 97q-95 95 -104 226q-1 12 -1 23q0 135 95 234q94 98 227 104h14q119 0 215 -80q14 -12 26 -24l-34 -34q-76 83 -189 90q-9 1 -18 1q-120 0 -206 -88q-83 -86 -83 -203q0 -122 86 -210q85 -88 203 -88q94 0 175 63q18 15 33 31l34 -34 q-71 -72 -164 -97q32 -56 11 -121q-24 -64 -90 -91q-31 -12 -62 -12q-32 0 -58 11l8 38q24 -10 46 -10q62 0 98 46q12 15 18 33q17 53 -12 98q-18 -3 -37 -3z" glyph-name="Ccedilla" horiz-adv-x="662" unicode="Ç"/>
<glyph d="M336 709h-21l-95 121v21h43zM67 0v670h439v-47h-392v-254h379v-47h-379v-274h392v-48h-439z" glyph-name="Egrave" horiz-adv-x="556" unicode="È"/>
<glyph d="M217 708l79 142h43v-21l-102 -121h-20zM67 0v670h439v-47h-392v-254h379v-47h-379v-274h392v-48h-439z" glyph-name="Eacute" horiz-adv-x="556" unicode="É"/>
<glyph d="M128 708l131 142h37l132 -142h-37l-113 108l-113 -108h-37zM67 0v670h439v-47h-392v-254h379v-47h-379v-274h392v-48h-439z" glyph-name="Ecircumflex" horiz-adv-x="556" unicode="Ê"/>
<glyph d="M343 805q0 24 23 28q4 1 7 1q28 -2 29 -29q-2 -28 -29 -29q-26 5 -30 29zM154 805q5 26 29 29q28 -2 29 -29q-2 -28 -29 -29q-26 5 -29 29zM67 0v670h439v-47h-392v-254h379v-47h-379v-274h392v-48h-439z" glyph-name="Edieresis" horiz-adv-x="556" unicode="Ë"/>
<glyph d="M163 709h-20l-95 121v21h42zM132 0h-47v670h47v-670z" glyph-name="Igrave" horiz-adv-x="211" unicode="Ì"/>
<glyph d="M44 708l80 142h43v-21l-102 -121h-21zM132 0h-47v670h47v-670z" glyph-name="Iacute" horiz-adv-x="211" unicode="Í"/>
<glyph d="M-45 708l132 142h37l132 -142h-37l-113 108l-114 -108h-37zM132 0h-47v670h47v-670z" glyph-name="Icircumflex" horiz-adv-x="211" unicode="Î"/>
<glyph d="M171 805q5 26 29 29q29 -2 30 -29q-2 -28 -30 -29q-26 5 -29 29zM-19 805q0 24 23 28q4 1 7 1q28 -2 29 -29q-2 -28 -29 -29q-26 5 -30 29zM132 0h-47v670h47v-670z" glyph-name="Idieresis" horiz-adv-x="211" unicode="Ï"/>
<glyph d="M94 348v302h252q182 0 268 -123q57 -83 57 -205q0 -173 -116 -260q-84 -62 -209 -62h-252v303h-57v45h57zM346 606h-204v-258h205v-45h-205v-259h204q150 0 226 103q52 72 52 176q0 162 -110 236q-69 47 -168 47z" glyph-name="Eth" horiz-adv-x="724" unicode="Ð"/>
<glyph d="M512 845l39 -6q-16 -113 -83 -117q-35 1 -82 31q-72 49 -107 49q-6 0 -11 -1q-32 -6 -45 -46q-4 -14 -8 -33l-38 11q14 80 52 100q18 9 41 9q35 0 100 -38q9 -6 13 -8q50 -31 76 -31q45 1 53 80zM76 0v670h47l484 -595v595h48v-670h-48l-484 595v-595h-47z" glyph-name="Ntilde" horiz-adv-x="728" unicode="Ñ"/>
<glyph d="M447 709h-21l-95 121v21h43zM58 333q0 138 95 238q93 99 225 106h16q133 0 231 -95.5t105 -232.5v-16q0 -138 -96 -237q-94 -98 -227 -103h-13q-134 0 -232 95q-99 96 -104 232v13zM105 333q0 -121 87 -208q86 -86 202 -86q117 0 202 87q86 88 86 207q0 122 -86 211 q-86 87 -202 87q-118 0 -203 -88q-86 -89 -86 -210z" glyph-name="Ograve" horiz-adv-x="778" unicode="Ò"/>
<glyph d="M328 708l80 142h43v-21l-102 -121h-21zM58 333q0 138 95 238q93 99 225 106h16q133 0 231 -95.5t105 -232.5v-16q0 -138 -96 -237q-94 -98 -227 -103h-13q-134 0 -232 95q-99 96 -104 232v13zM105 333q0 -121 87 -208q86 -86 202 -86q117 0 202 87q86 88 86 207 q0 122 -86 211q-86 87 -202 87q-118 0 -203 -88q-86 -89 -86 -210z" glyph-name="Oacute" horiz-adv-x="778" unicode="Ó"/>
<glyph d="M239 708l132 142h37l132 -142h-38l-113 108l-113 -108h-37zM58 333q0 138 95 238q93 99 225 106h16q133 0 231 -95.5t105 -232.5v-16q0 -138 -96 -237q-94 -98 -227 -103h-13q-134 0 -232 95q-99 96 -104 232v13zM105 333q0 -121 87 -208q86 -86 202 -86q117 0 202 87 q86 88 86 207q0 122 -86 211q-86 87 -202 87q-118 0 -203 -88q-86 -89 -86 -210z" glyph-name="Ocircumflex" horiz-adv-x="778" unicode="Ô"/>
<glyph d="M538 845l38 -6q-18 -112 -82 -117q-36 1 -83 31q-72 49 -107 49q-6 0 -11 -1q-32 -6 -45 -46q-4 -14 -8 -33l-38 11q14 80 52 100q18 9 41 9q36 0 98 -37q11 -7 15 -9q50 -31 76 -31q44 1 54 80zM58 333q0 138 95 238q93 99 225 106h16q133 0 231 -95.5t105 -232.5v-16 q0 -138 -96 -237q-94 -98 -227 -103h-13q-134 0 -232 95q-99 96 -104 232v13zM105 333q0 -121 87 -208q86 -86 202 -86q117 0 202 87q86 88 86 207q0 122 -86 211q-86 87 -202 87q-118 0 -203 -88q-86 -89 -86 -210z" glyph-name="Otilde" horiz-adv-x="778" unicode="Õ"/>
<glyph d="M255 812q5 26 29 29q28 -2 29 -29q-2 -28 -29 -29q-26 5 -29 29zM435 812q5 26 29 29q28 -2 29 -29q-2 -28 -29 -29q-26 5 -29 29zM38 333q0 138 95 238q93 99 225 106h16q133 0 231 -95.5t105 -232.5v-16q0 -138 -96 -237q-94 -98 -227 -103h-13q-134 0 -232 95 q-99 96 -104 232v13zM86 333q0 -121 86 -208q86 -86 202 -86q118 0 203 87q86 88 86 207q0 122 -87 211q-86 87 -202 87t-201 -87q-87 -89 -87 -211z" glyph-name="Odieresis" horiz-adv-x="744" unicode="Ö"/>
<glyph d="M260 261l-147 -147l-34 32l148 148l-149 149l33 33l149 -149l145 145l34 -32l-146 -146l144 -145l-33 -32z" glyph-name="multiply" horiz-adv-x="512" unicode="×"/>
<glyph d="M38 333q0 138 95 238q93 99 225 106h16q133 -1 232 -96l54 50l23 -26l-53 -50q80 -97 80 -222q0 -138 -96 -237q-94 -98 -227 -103h-13q-132 0 -229 93q-5 4 -9 8l-73 -68l-22 26l72 68q-75 93 -75 213zM86 333q1 -102 62 -181l423 397q-84 82 -197 82q-116 0 -201 -87 q-87 -89 -87 -211zM595 523l-425 -397q88 -87 204 -87q118 0 203 87q86 88 86 207q-1 106 -68 190z" glyph-name="Oslash" horiz-adv-x="744" unicode="Ø"/>
<glyph d="M397 709h-21l-95 121v21h43zM567 670h45l-1 -411q1 -131 -87 -205q-72 -59 -181 -59q-159 0 -231 110q-42 65 -42 154l-1 411h45v-410q0 -122 91 -180q58 -37 140 -37q123 0 184 88q38 55 39 128z" glyph-name="Ugrave" horiz-adv-x="679" unicode="Ù"/>
<glyph d="M278 708l80 142h43v-21l-102 -121h-21zM567 670h45l-1 -411q1 -131 -87 -205q-72 -59 -181 -59q-159 0 -231 110q-42 65 -42 154l-1 411h45v-410q0 -122 91 -180q58 -37 140 -37q123 0 184 88q38 55 39 128z" glyph-name="Uacute" horiz-adv-x="679" unicode="Ú"/>
<glyph d="M189 708l132 142h37l132 -142h-38l-113 108l-113 -108h-37zM567 670h45l-1 -411q1 -131 -87 -205q-72 -59 -181 -59q-159 0 -231 110q-42 65 -42 154l-1 411h45v-410q0 -122 91 -180q58 -37 140 -37q123 0 184 88q38 55 39 128z" glyph-name="Ucircumflex" horiz-adv-x="679" unicode="Û"/>
<glyph d="M405 805q5 26 29 29q28 -2 29 -29q-2 -28 -29 -29q-26 5 -29 29zM215 805q0 24 23 28q4 1 7 1q28 -2 29 -29q-2 -28 -29 -29q-26 5 -30 29zM567 670h45l-1 -411q1 -131 -87 -205q-72 -59 -181 -59q-159 0 -231 110q-42 65 -42 154l-1 411h45v-410q0 -122 91 -180 q58 -37 140 -37q123 0 184 88q38 55 39 128z" glyph-name="Udieresis" horiz-adv-x="679" unicode="Ü"/>
<glyph d="M278 708l79 142h43v-21l-102 -121h-20zM264 268l-246 402h55l214 -358l218 358h54l-248 -402v-268h-47v268z" glyph-name="Yacute" horiz-adv-x="577" unicode="Ý"/>
<glyph d="M567 324q0 -117 -79 -191q-68 -64 -163 -64q-121 0 -187 74q-21 24 -30 50v-193h-48v650h48v-177q44 70 132 96q41 12 85 12q113 0 184 -87q58 -73 58 -170zM108 268q0 -65 69 -112q55 -38 124 -42q104 -5 168 67q51 58 51 143q0 107 -77 169q-61 48 -141 43 q-101 -8 -160 -71q-33 -36 -34 -73v-124z" glyph-name="Thorn" horiz-adv-x="590" unicode="Þ"/>
<glyph d="M73 0v417q0 138 92 201q52 35 120 35q97 0 152 -66q36 -44 36 -97q0 -34 -43 -87q-37 -45 -40 -65q-1 -5 -1 -8q0 -20 43 -58q53 -48 68 -74q14 -26 14 -51q0 -84 -79 -125q-49 -26 -115 -26q-34 0 -55 4v48q39 -10 68 -8q101 6 126 72q7 19 7 39q0 33 -55 83 q-49 44 -59 59q-11 16 -11 30q0 36 39 82q36 42 43 63q3 12 3 22q0 61 -58 96q-42 25 -94 23q-71 -2 -116 -65q-37 -53 -37 -127v-417h-48z" glyph-name="germandbls" horiz-adv-x="550" unicode="ß"/>
<glyph d="M321 558h-21l-95 121v21h43zM43 248q0 118 80 193q69 64 163 64q152 -1 217 -120v115h47v-500h-47v123q-29 -72 -114 -108q-50 -22 -104 -22q-112 0 -182 85q-60 72 -60 170zM300 38q82 0 148 59q54 50 55 107v87q0 67 -63 119q-60 50 -139 50q-118 0 -177 -93 q-33 -54 -33 -119q0 -106 76 -166q57 -44 133 -44z" glyph-name="agrave" unicode="à"/>
<glyph d="M265 558l81 142h43v-21l-103 -121h-21zM43 248q0 118 80 193q69 64 163 64q152 -1 217 -120v115h47v-500h-47v123q-29 -72 -114 -108q-50 -22 -104 -22q-112 0 -182 85q-60 72 -60 170zM300 38q82 0 148 59q54 50 55 107v87q0 67 -63 119q-60 50 -139 50q-118 0 -177 -93 q-33 -54 -33 -119q0 -106 76 -166q57 -44 133 -44z" glyph-name="aacute" unicode="á"/>
<glyph d="M148 558l132 142h37l131 -142h-37l-113 108l-113 -108h-37zM43 248q0 118 80 193q69 64 163 64q152 -1 217 -120v115h47v-500h-47v123q-29 -72 -114 -108q-50 -22 -104 -22q-112 0 -182 85q-60 72 -60 170zM300 38q82 0 148 59q54 50 55 107v87q0 67 -63 119 q-60 50 -139 50q-118 0 -177 -93q-33 -54 -33 -119q0 -106 76 -166q57 -44 133 -44z" glyph-name="acircumflex" unicode="â"/>
<glyph d="M435 684l39 -6q-16 -116 -83 -117q-35 1 -82 31q-73 50 -110 49q-4 -1 -8 -1q-31 -5 -45 -44q-5 -15 -9 -35l-37 11q14 78 48 98q19 11 45 11q35 0 98 -37q10 -7 14 -9q52 -31 77 -31q45 1 53 80zM43 248q0 118 80 193q69 64 163 64q152 -1 217 -120v115h47v-500h-47v123 q-29 -72 -114 -108q-50 -22 -104 -22q-112 0 -182 85q-60 72 -60 170zM300 38q82 0 148 59q54 50 55 107v87q0 67 -63 119q-60 50 -139 50q-118 0 -177 -93q-33 -54 -33 -119q0 -106 76 -166q57 -44 133 -44z" glyph-name="atilde" unicode="ã"/>
<glyph d="M178 643q0 24 22 28q4 1 7 1q28 -2 29 -29q-2 -29 -29 -30q-24 0 -28 23q-1 4 -1 7zM358 643q0 24 22 28q4 1 7 1q28 -2 29 -29q-2 -29 -29 -30q-24 0 -28 23q-1 4 -1 7zM43 248q0 118 80 193q69 64 163 64q152 -1 217 -120v115h47v-500h-47v123q-29 -72 -114 -108 q-50 -22 -104 -22q-112 0 -182 85q-60 72 -60 170zM300 38q82 0 148 59q54 50 55 107v87q0 67 -63 119q-60 50 -139 50q-118 0 -177 -93q-33 -54 -33 -119q0 -106 76 -166q57 -44 133 -44z" glyph-name="adieresis" unicode="ä"/>
<glyph d="M172 679q0 65 53 103q33 24 73 24q66 0 103 -54q23 -34 23 -73q0 -63 -53 -100q-33 -22 -73 -22q-65 0 -103 52q-23 32 -23 70zM206 679q0 -49 44 -75q22 -13 48 -13q53 0 79 43q13 21 13 45q0 55 -45 81q-22 12 -47 12q-52 0 -79 -44q-13 -23 -13 -49zM43 248 q0 118 80 193q69 64 163 64q152 -1 217 -120v115h47v-500h-47v123q-29 -72 -114 -108q-50 -22 -104 -22q-112 0 -182 85q-60 72 -60 170zM300 38q82 0 148 59q54 50 55 107v87q0 67 -63 119q-60 50 -139 50q-118 0 -177 -93q-33 -54 -33 -119q0 -106 76 -166q57 -44 133 -44 z" glyph-name="aring" unicode="å"/>
<glyph d="M59 248q0 118 80 193q69 64 162 64q154 -1 217 -120v115h48v-101q62 88 167 103q18 3 35 3q113 0 186 -83q63 -73 63 -172q0 -13 -1 -19h-449q8 -100 83 -155q52 -38 118 -38q111 1 171 94l45 -12q-50 -92 -151 -118q-32 -9 -65 -9q-112 0 -186 84q-9 11 -16 21v-98h-48 v123q-30 -73 -114 -109q-50 -21 -104 -21q-111 0 -182 85q-59 72 -59 170zM567 268h401q-6 102 -83 157q-52 37 -117 37q-97 0 -156 -76q-39 -51 -45 -118zM315 38q84 0 149 60q53 50 54 106v87q0 67 -63 119q-60 50 -139 50q-118 0 -177 -93q-33 -54 -33 -119 q0 -105 76 -165q56 -45 133 -45z" glyph-name="ae" horiz-adv-x="1070" unicode="æ"/>
<glyph d="M313 -7q-111 0 -188 81q-69 74 -69 174q0 111 82 187q75 70 175 70q110 0 186 -80l2 -2l-33 -33q-53 60 -136 68q-10 1 -19 1q-95 0 -158 -73q-51 -60 -51 -138q0 -95 72 -158q59 -51 137 -51q90 1 156 69l33 -33q-56 -58 -131 -75q29 -54 10 -117q-24 -64 -90 -91 q-31 -12 -62 -12q-32 0 -58 11l7 38q24 -10 46 -10q62 0 98 46q12 15 18 33q17 52 -10 96q-7 -1 -17 -1z" glyph-name="ccedilla" horiz-adv-x="542" unicode="ç"/>
<glyph d="M326 562h-20l-95 121v21h42zM305 -7q-111 0 -185 83q-64 73 -64 172q0 115 81 191q71 66 168 66q111 0 184 -82q65 -73 65 -173q0 -5 -1 -11v-8h-449q7 -100 83 -155q52 -38 118 -38q111 1 171 94l45 -12q-53 -94 -156 -120q-30 -7 -60 -7zM104 268h401q-7 102 -84 157 q-52 37 -116 37q-96 0 -156 -75q-40 -51 -45 -119z" glyph-name="egrave" horiz-adv-x="601" unicode="è"/>
<glyph d="M271 562l81 142h43v-21l-104 -121h-20zM305 -7q-111 0 -185 83q-64 73 -64 172q0 115 81 191q71 66 168 66q111 0 184 -82q65 -73 65 -173q0 -5 -1 -11v-8h-449q7 -100 83 -155q52 -38 118 -38q111 1 171 94l45 -12q-53 -94 -156 -120q-30 -7 -60 -7zM104 268h401 q-7 102 -84 157q-52 37 -116 37q-96 0 -156 -75q-40 -51 -45 -119z" glyph-name="eacute" horiz-adv-x="601" unicode="é"/>
<glyph d="M154 562l131 142h37l132 -142h-37l-113 108l-113 -108h-37zM305 -7q-111 0 -185 83q-64 73 -64 172q0 115 81 191q71 66 168 66q111 0 184 -82q65 -73 65 -173q0 -5 -1 -11v-8h-449q7 -100 83 -155q52 -38 118 -38q111 1 171 94l45 -12q-53 -94 -156 -120q-30 -7 -60 -7z M104 268h401q-7 102 -84 157q-52 37 -116 37q-96 0 -156 -75q-40 -51 -45 -119z" glyph-name="ecircumflex" horiz-adv-x="601" unicode="ê"/>
<glyph d="M184 647q0 24 22 28q4 1 7 1q26 -5 29 -29q-4 -28 -29 -30q-24 0 -28 23q-1 4 -1 7zM364 647q0 24 22 28q4 1 7 1q26 -5 29 -29q-4 -28 -29 -30q-24 0 -28 23q-1 4 -1 7zM305 -7q-111 0 -185 83q-64 73 -64 172q0 115 81 191q71 66 168 66q111 0 184 -82q65 -73 65 -173 q0 -5 -1 -11v-8h-449q7 -100 83 -155q52 -38 118 -38q111 1 171 94l45 -12q-53 -94 -156 -120q-30 -7 -60 -7zM104 268h401q-7 102 -84 157q-52 37 -116 37q-96 0 -156 -75q-40 -51 -45 -119z" glyph-name="edieresis" horiz-adv-x="601" unicode="ë"/>
<glyph d="M119 558h-20l-95 121v21h42zM120 0h-48v500h48v-500z" glyph-name="igrave" horiz-adv-x="183" unicode="ì"/>
<glyph d="M64 558l81 142h43v-21l-104 -121h-20zM120 0h-48v500h48v-500z" glyph-name="iacute" horiz-adv-x="183" unicode="í"/>
<glyph d="M-54 558l132 142h37l132 -142h-37l-113 108l-113 -108h-38zM120 0h-48v500h48v-500z" glyph-name="icircumflex" horiz-adv-x="183" unicode="î"/>
<glyph d="M-24 643q0 23 22 28q4 1 8 1q26 -5 29 -29q-4 -28 -29 -30q-25 0 -29 23q-1 4 -1 7zM157 643q0 24 22 28q4 1 7 1q26 -5 29 -29q-4 -28 -29 -30q-24 0 -28 23q-1 4 -1 7zM120 0h-48v500h48v-500z" glyph-name="idieresis" horiz-adv-x="183" unicode="ï"/>
<glyph d="M42 238q0 131 91 192q51 33 118 35q138 4 203 -92q8 -12 14 -24q-28 134 -111 230l-203 -62l-6 28l187 57q-27 27 -57 48h58q15 -12 40 -35l70 22l5 -29l-52 -16q128 -144 128 -355q-2 -243 -251 -244q-159 0 -212 127q-22 52 -22 118zM275 36q187 0 203 171q1 16 1 31 q0 75 -64 130q-59 50 -140 52q-112 1 -159 -78q-26 -43 -26 -104q0 -123 81 -174q44 -28 104 -28z" glyph-name="eth" horiz-adv-x="572" unicode="ð"/>
<glyph d="M446 692l39 -6q-16 -116 -83 -117q-36 1 -82 31q-73 48 -107 49q-7 0 -12 -1q-30 -5 -44 -43q-5 -15 -9 -36l-38 11q15 83 57 102q17 7 37 7q35 0 98 -37q10 -7 14 -9q52 -31 77 -31q14 1 25 8q22 19 28 72zM131 323v-323h-47v500h47v-97q66 101 186 102q97 0 156 -85 q49 -71 49 -172v-248h-48v248q0 124 -75 181q-46 34 -106 31q-81 -5 -131 -64q-31 -36 -31 -73z" glyph-name="ntilde" horiz-adv-x="578" unicode="ñ"/>
<glyph d="M331 566h-21l-95 121v21h43zM308 -7q-111 0 -187 81q-70 74 -70 174q0 111 82 187q75 70 175 70q111 0 187 -82q70 -75 70 -175q0 -110 -82 -186q-75 -69 -175 -69zM308 462q-93 0 -156 -72q-53 -61 -53 -142q0 -96 72 -159q60 -52 137 -52q93 0 156 70q54 61 54 141 q0 96 -71 160q-61 54 -139 54z" glyph-name="ograve" horiz-adv-x="613" unicode="ò"/>
<glyph d="M275 566l81 142h43v-21l-103 -121h-21zM308 -7q-111 0 -187 81q-70 74 -70 174q0 111 82 187q75 70 175 70q111 0 187 -82q70 -75 70 -175q0 -110 -82 -186q-75 -69 -175 -69zM308 462q-93 0 -156 -72q-53 -61 -53 -142q0 -96 72 -159q60 -52 137 -52q93 0 156 70 q54 61 54 141q0 96 -71 160q-61 54 -139 54z" glyph-name="oacute" horiz-adv-x="613" unicode="ó"/>
<glyph d="M158 566l132 142h37l131 -142h-37l-113 108l-113 -108h-37zM308 -7q-111 0 -187 81q-70 74 -70 174q0 111 82 187q75 70 175 70q111 0 187 -82q70 -75 70 -175q0 -110 -82 -186q-75 -69 -175 -69zM308 462q-93 0 -156 -72q-53 -61 -53 -142q0 -96 72 -159q60 -52 137 -52 q93 0 156 70q54 61 54 141q0 96 -71 160q-61 54 -139 54z" glyph-name="ocircumflex" horiz-adv-x="613" unicode="ô"/>
<glyph d="M445 692l39 -6q-16 -116 -83 -117q-35 1 -82 31q-73 50 -110 49q-4 -1 -8 -1q-31 -5 -45 -44q-5 -15 -9 -35l-37 11q14 78 48 98q19 11 45 11q35 0 98 -37q10 -7 14 -9q52 -31 77 -31q45 1 53 80zM308 -7q-111 0 -187 81q-70 74 -70 174q0 111 82 187q75 70 175 70 q111 0 187 -82q70 -75 70 -175q0 -110 -82 -186q-75 -69 -175 -69zM308 462q-93 0 -156 -72q-53 -61 -53 -142q0 -96 72 -159q60 -52 137 -52q93 0 156 70q54 61 54 141q0 96 -71 160q-61 54 -139 54z" glyph-name="otilde" horiz-adv-x="613" unicode="õ"/>
<glyph d="M188 651q0 24 22 28q4 1 7 1q28 -2 29 -29q-2 -29 -29 -30q-24 0 -28 23q-1 4 -1 7zM368 651q0 24 22 28q4 1 7 1q28 -2 29 -29q-2 -29 -29 -30q-24 0 -28 23q-1 4 -1 7zM308 -7q-111 0 -187 81q-70 74 -70 174q0 111 82 187q75 70 175 70q111 0 187 -82q70 -75 70 -175 q0 -110 -82 -186q-75 -69 -175 -69zM308 462q-93 0 -156 -72q-53 -61 -53 -142q0 -96 72 -159q60 -52 137 -52q93 0 156 70q54 61 54 141q0 96 -71 160q-61 54 -139 54z" glyph-name="odieresis" horiz-adv-x="613" unicode="ö"/>
<glyph d="M239 482q5 26 29 29q28 -2 29 -29q-2 -28 -29 -29q-26 5 -29 29zM491 233h-450v46h450v-46zM239 20q0 25 22 29q4 1 7 1q28 -2 29 -30q-2 -28 -29 -29q-24 0 -28 22q-1 4 -1 7z" glyph-name="divide" horiz-adv-x="531" unicode="÷"/>
<glyph d="M290 -7q-109 1 -184 77l-45 -42l-22 26l45 42q-51 68 -51 152q0 111 82 187q75 70 175 70q97 -1 169 -64l44 40l24 -25l-43 -40q63 -73 63 -168q0 -110 -82 -186q-75 -69 -175 -69zM290 462q-93 0 -156 -72q-53 -61 -53 -142q1 -67 37 -121l308 283q-61 52 -136 52z M450 385l-310 -284q62 -64 150 -64q93 0 156 70q54 61 54 141q-1 78 -50 137z" glyph-name="oslash" horiz-adv-x="580" unicode="ø"/>
<glyph d="M298 558h-21l-95 121v21h43zM443 178v322h48v-500h-48v97q-65 -101 -184 -102q-97 0 -156 85q-49 71 -49 172v248h48v-248q0 -124 75 -181q46 -34 106 -30q82 5 131 64q29 36 29 73z" glyph-name="ugrave" horiz-adv-x="555" unicode="ù"/>
<glyph d="M242 558l81 142h43v-21l-103 -121h-21zM443 178v322h48v-500h-48v97q-65 -101 -184 -102q-97 0 -156 85q-49 71 -49 172v248h48v-248q0 -124 75 -181q46 -34 106 -30q82 5 131 64q29 36 29 73z" glyph-name="uacute" horiz-adv-x="555" unicode="ú"/>
<glyph d="M125 558l132 142h37l131 -142h-37l-113 108l-113 -108h-37zM443 178v322h48v-500h-48v97q-65 -101 -184 -102q-97 0 -156 85q-49 71 -49 172v248h48v-248q0 -124 75 -181q46 -34 106 -30q82 5 131 64q29 36 29 73z" glyph-name="ucircumflex" horiz-adv-x="555" unicode="û"/>
<glyph d="M155 643q0 24 22 28q4 1 7 1q28 -2 29 -29q-2 -29 -29 -30q-24 0 -28 23q-1 4 -1 7zM335 643q0 24 22 28q4 1 7 1q28 -2 29 -29q-2 -29 -29 -30q-24 0 -28 23q-1 4 -1 7zM443 178v322h48v-500h-48v97q-65 -101 -184 -102q-97 0 -156 85q-49 71 -49 172v248h48v-248 q0 -124 75 -181q46 -34 106 -30q82 5 131 64q29 36 29 73z" glyph-name="udieresis" horiz-adv-x="555" unicode="ü"/>
<glyph d="M228 558l81 142h43v-21l-104 -121h-20zM456 500h51l-212 -500q-3 -6 -9 -22q-44 -119 -97 -168q-41 -37 -90 -46l-7 44q83 17 145 168q2 5 5.5 13t4.5 11l-224 500h52l195 -444z" glyph-name="yacute" horiz-adv-x="526" unicode="ý"/>
<glyph d="M584 248q0 -117 -80 -191q-68 -64 -163 -64q-118 0 -185 72q-23 25 -32 52v-317h-47v900h47v-303q42 68 129 95q42 13 88 13q113 0 184 -86q59 -73 59 -171zM124 192q0 -65 69 -112q55 -38 124 -42q104 -5 168 67q51 58 51 143q0 106 -76 168q-61 49 -141 44 q-101 -8 -160 -70q-34 -37 -35 -74v-124z" glyph-name="thorn" horiz-adv-x="635" unicode="þ"/>
</font>
</defs>
</svg>
